<?xml version="1.1" encoding="utf-8"?>
<svg viewBox="0 0 800 300" xmlns:xlink="http://www.w3.org/1999/xlink" xml:space="preserve"
    xmlns="http://www.w3.org/2000/svg" width="800" height="300">
    <defs>
        <style type="text/css">
            @import url(http://fonts.googleapis.com/css?family=Fira+Sans);

            #full-name {
                text-shadow: 0 6px 8px #0008;
                font-weight: 100;
            }

            a:hover {
                text-decoration: underline;
            }
        </style>
    </defs>
    <g font-family="'Fira Sans', sans-serif">
        <rect width="800" height="300" fill="#dcdcdc" />
        <g>
            <path id="wave"
                d="M0,150q50,20,100,0q50,-20,100,0q50,20,100,0q50,-20,100,0q50,20,100,0q50,-20,100,0q50,20,100,0q50,-20,100,0q50,20,100,0q50,-20,100,0v150h-1000"
                fill="#3311aa">
            </path>
            <animateTransform xlink:href="#wave" attributeName="transform" attributeType="auto" type="translate"
                from="-200,0" to="0,0" begin="0s" dur="4s" repeatCount="indefinite" />
        </g>
        <text id="full-name" text-anchor="middle" alignment-baseline="middle" font-size="60" x="50%" y="40%"
            fill="#3311aa">
            An Hoang
        </text>
        <g>
            <text text-anchor="middle" alignment-baseline="middle" font-size="20" x="50%" y="60%" fill="#dcdcdc">
                beohoang98
            </text>
        </g>
        <g fill="black" transform="translate(0 0)">
            <a href="https://facebook.com/beohoang1998">
                <svg x="8" y="8" width="18" height="18" aria-hidden="true" focusable="false" data-prefix="fab"
                    data-icon="facebook" class="svg-inline--fa fa-facebook fa-w-16" role="img"
                    xmlns="http://www.w3.org/2000/svg" viewBox="0 0 512 512">
                    <path fill="currentColor"
                        d="M504 256C504 119 393 8 256 8S8 119 8 256c0 123.78 90.69 226.38 209.25 245V327.69h-63V256h63v-54.64c0-62.15 37-96.48 93.67-96.48 27.14 0 55.52 4.84 55.52 4.84v61h-31.28c-30.8 0-40.41 19.12-40.41 38.73V256h68.78l-11 71.69h-57.78V501C413.31 482.38 504 379.78 504 256z">
                    </path>
                </svg>
                <text font-size="12" alignment-baseline="middle" x="30" y="18">
                    Beo Hoang
                </text>
            </a>
        </g>
        <g fill="black" transform="translate(0,24)">
            <a href="mailto:hoangdanan98@gmail.com">
                <svg x="8" y="8" width="18" height="18" aria-hidden="true" focusable="false" data-prefix="fas" data-icon="envelope"
                    class="svg-inline--fa fa-envelope fa-w-16" role="img" xmlns="http://www.w3.org/2000/svg"
                    viewBox="0 0 512 512">
                    <path fill="currentColor"
                        d="M502.3 190.8c3.9-3.1 9.7-.2 9.7 4.7V400c0 26.5-21.5 48-48 48H48c-26.5 0-48-21.5-48-48V195.6c0-5 5.7-7.8 9.7-4.7 22.4 17.4 52.1 39.5 154.1 113.6 21.1 15.4 56.7 47.8 92.2 47.6 35.7.3 72-32.8 92.3-47.6 102-74.1 131.6-96.3 154-113.7zM256 320c23.2.4 56.6-29.2 73.4-41.4 132.7-96.3 142.8-104.7 173.4-128.7 5.8-4.5 9.2-11.5 9.2-18.9v-19c0-26.5-21.5-48-48-48H48C21.5 64 0 85.5 0 112v19c0 7.4 3.4 14.3 9.2 18.9 30.6 23.9 40.7 32.4 173.4 128.7 16.8 12.2 50.2 41.8 73.4 41.4z">
                    </path>
                </svg>
                <text font-size="12" alignment-baseline="middle" x="30" y="18">
                    hoangdanan98@gmail.com
                </text>
            </a>
        </g>
        <g fill="black" transform="translate(0,48)">
            <a href="https://www.linkedin.com/in/an-hoang98">
                <svg x="8" y="8" width="18" height="18" aria-hidden="true" focusable="false" data-prefix="fab" data-icon="linkedin"
                    class="svg-inline--fa fa-linkedin fa-w-14" role="img" xmlns="http://www.w3.org/2000/svg"
                    viewBox="0 0 448 512">
                    <path fill="currentColor"
                        d="M416 32H31.9C14.3 32 0 46.5 0 64.3v383.4C0 465.5 14.3 480 31.9 480H416c17.6 0 32-14.5 32-32.3V64.3c0-17.8-14.4-32.3-32-32.3zM135.4 416H69V202.2h66.5V416zm-33.2-243c-21.3 0-38.5-17.3-38.5-38.5S80.9 96 102.2 96c21.2 0 38.5 17.3 38.5 38.5 0 21.3-17.2 38.5-38.5 38.5zm282.1 243h-66.4V312c0-24.8-.5-56.7-34.5-56.7-34.6 0-39.9 27-39.9 54.9V416h-66.4V202.2h63.7v29.2h.9c8.9-16.8 30.6-34.5 62.9-34.5 67.2 0 79.7 44.3 79.7 101.9V416z">
                    </path>
                </svg>
                <text font-size="12" alignment-baseline="middle" x="30" y="18">
                    an-hoang98
                </text>
            </a>
        </g>
    </g>
</svg>